<?xml version="1.0" encoding="iso-8859-1"?>
<!-- Uploaded to: SVG Repo, www.svgrepo.com, Generator: SVG Repo Mixer Tools -->
<svg fill="#000000" height="800px" width="800px" version="1.1" id="Capa_1" xmlns="http://www.w3.org/2000/svg" xmlns:xlink="http://www.w3.org/1999/xlink" 
	 viewBox="0 0 490 490" xml:space="preserve">
<g>
	<path d="M245.204,101.267C67.171,101.267,0,245,0,245s66.763,143.733,244.796,143.733C422.829,388.733,490,245,490,245
		S423.238,101.267,245.204,101.267z M244.796,373.421c-146.393,0-212.367-101.053-227.506-128.333
		c15.249-26.796,82.733-128.508,227.914-128.508c146.514,0,212.475,101.22,227.543,128.4
		C457.578,272.203,391.313,373.421,244.796,373.421z"/>
	<path d="M245.003,146.124c-54.521,0-98.881,44.352-98.881,98.873c0,54.521,44.36,98.881,98.881,98.881s98.873-44.36,98.873-98.881
		C343.876,190.477,299.524,146.124,245.003,146.124z M245.003,328.566c-46.08,0-83.568-37.489-83.568-83.568
		c0-46.072,37.489-83.561,83.568-83.561c46.072,0,83.561,37.489,83.561,83.561C328.564,291.077,291.075,328.566,245.003,328.566z"/>
	<path d="M245.003,175.583c-38.281,0-69.422,31.141-69.422,69.415c0,38.274,31.141,69.415,69.422,69.415
		c38.274,0,69.415-31.141,69.415-69.415C314.417,206.724,283.277,175.583,245.003,175.583z M245.003,299.1
		c-29.833,0-54.11-24.27-54.11-54.102c0-29.832,24.277-54.102,54.11-54.102s54.102,24.27,54.102,54.102
		C299.105,274.83,274.835,299.1,245.003,299.1z"/>
	<path d="M245.003,206.679c-21.13,0-38.326,17.189-38.326,38.319c0,21.129,17.197,38.326,38.326,38.326s38.319-17.197,38.319-38.326
		C283.321,223.868,266.132,206.679,245.003,206.679z M245.003,268.011c-12.688,0-23.014-10.326-23.014-23.014
		c0-12.688,10.325-23.006,23.014-23.006c12.688,0,23.006,10.318,23.006,23.006C268.009,257.686,257.691,268.011,245.003,268.011z"/>
</g>
</svg>